<?xml version="1.0" encoding="utf-8"?>
<!-- Generator: Adobe Illustrator 27.4.1, SVG Export Plug-In . SVG Version: 6.00 Build 0)  -->
<svg version="1.1" id="Layer_1" xmlns="http://www.w3.org/2000/svg" xmlns:xlink="http://www.w3.org/1999/xlink" x="0px" y="0px"
	 viewBox="0 0 300 65" style="enable-background:new 0 0 300 65;" xml:space="preserve">
<style type="text/css">
	.st0{fill:#FFFFFF;}
	.st1{fill:#F1C20A;}
	.st2{fill:#140C33;}
</style>
<path class="st0" d="M294,65H6c-3.3,0-6-2.7-6-6V6c0-3.3,2.7-6,6-6h288c3.3,0,6,2.7,6,6v53C300,62.3,297.3,65,294,65z"/>
<g>
	<g>
		<path class="st1" d="M276.6,36.6c-1.2-1.2-5-2.5-9.8-5.3c-1.9-1.1-3.6-2.7-4.8-4.5c-2-3-2.8-4.9-3.4-5.4c-1.1-1.1-3-1.1-4.1,0
			c-1.1,1.1-1.1,3,0,4.1c0.6,0.6,2.4,1.4,5.4,3.4c1.8,1.2,3.4,2.9,4.5,4.8c2.8,4.8,4.1,8.6,5.3,9.8c1.9,1.9,5,1.9,6.9,0
			C278.5,41.6,278.5,38.6,276.6,36.6z"/>
		<path class="st1" d="M270.7,18.3c0.7,0.7,1.5,3,3.2,5.9c0.7,1.1,1.6,2.1,2.7,2.9c1.8,1.2,2.9,1.7,3.3,2c0.7,0.7,0.7,1.8,0,2.5
			c-0.7,0.7-1.8,0.7-2.5,0c-0.3-0.3-0.8-1.4-2-3.3c-0.7-1.1-1.7-2-2.9-2.7c-2.9-1.7-5.2-2.5-5.9-3.2c-1.1-1.1-1.1-3,0-4.1
			C267.7,17.1,269.5,17.1,270.7,18.3z"/>
		<path class="st1" d="M256.2,32.8c0.7,0.7,1.5,3,3.2,5.9c0.7,1.1,1.6,2.1,2.7,2.9c1.8,1.2,2.9,1.7,3.3,2c0.7,0.7,0.7,1.8,0,2.5
			c-0.7,0.7-1.8,0.7-2.5,0c-0.3-0.3-0.8-1.4-2-3.3c-0.7-1.1-1.7-2-2.9-2.7c-2.9-1.7-5.2-2.5-5.9-3.2c-1.1-1.1-1.1-3,0-4.1
			C253.2,31.6,255,31.6,256.2,32.8z"/>
		<g>
			<path class="st1" d="M245.5,44.2c0.7-0.7,1.4-1.1,2.3-1.4c-4.6-7.9-3.5-18.1,3.2-24.8c4-4,9.3-6,14.5-6c3.6,0,7.2,0.9,10.3,2.8
				c0.3-0.8,0.7-1.6,1.4-2.3c0.3-0.3,0.6-0.6,1-0.8c-9.4-5.8-21.9-4.6-30,3.6c-8.1,8.1-9.3,20.6-3.6,30
				C244.9,44.9,245.2,44.6,245.5,44.2z"/>
			<path class="st1" d="M286.4,19.8c-0.2,0.4-0.5,0.7-0.8,1c-0.7,0.7-1.4,1.1-2.3,1.4c4.6,7.9,3.5,18.1-3.2,24.8
				c-6.7,6.7-17,7.8-24.8,3.2c-0.3,0.9-0.8,1.6-1.4,2.3c-0.3,0.3-0.6,0.6-1,0.8c3.9,2.4,8.3,3.6,12.7,3.6c6.3,0,12.5-2.4,17.3-7.1
				C291,41.6,292.1,29.2,286.4,19.8z"/>
		</g>
		<circle class="st1" cx="281.4" cy="16.6" r="2.9"/>
		<circle class="st1" cx="249.7" cy="48.4" r="2.9"/>
	</g>
	<g>
		<rect x="224.3" y="8.1" class="st2" width="0.5" height="48.8"/>
	</g>
	<g>
		<path class="st2" d="M11,28.1c0.7-1.3,1.5-2.3,2.7-2.9c1.1-0.7,2.4-1,3.8-1c1.1,0,2.1,0.2,3,0.7c1,0.5,1.7,1.1,2.3,1.8V16.2H27
			v24.4h-4.2v-2.4c-0.5,0.8-1.2,1.4-2.1,1.9c-0.9,0.5-2,0.7-3.2,0.7c-1.4,0-2.6-0.4-3.8-1.1c-1.1-0.7-2-1.7-2.7-3
			c-0.7-1.3-1-2.8-1-4.4C10,30.8,10.4,29.3,11,28.1z M22.2,29.9c-0.4-0.7-0.9-1.3-1.6-1.6c-0.7-0.4-1.4-0.6-2.1-0.6
			c-0.8,0-1.5,0.2-2.1,0.6c-0.6,0.4-1.2,0.9-1.6,1.6c-0.4,0.7-0.6,1.6-0.6,2.5c0,1,0.2,1.8,0.6,2.6c0.4,0.7,0.9,1.3,1.6,1.7
			c0.7,0.4,1.4,0.6,2.1,0.6c0.8,0,1.5-0.2,2.1-0.6c0.7-0.4,1.2-0.9,1.6-1.6c0.4-0.7,0.6-1.6,0.6-2.6C22.8,31.5,22.6,30.6,22.2,29.9z
			"/>
		<path class="st2" d="M43.9,26c1.2,1.2,1.8,2.9,1.8,5.1v9.5h-4.1v-9c0-1.3-0.3-2.3-1-3c-0.6-0.7-1.5-1-2.6-1c-1.1,0-2,0.3-2.7,1
			c-0.7,0.7-1,1.7-1,3v9h-4.1V24.4h4.1v2c0.5-0.7,1.2-1.3,2.1-1.7c0.9-0.4,1.8-0.6,2.8-0.6C41.2,24.1,42.8,24.7,43.9,26z"/>
		<path class="st2" d="M48.8,28.1c0.7-1.3,1.5-2.3,2.7-2.9c1.1-0.7,2.4-1,3.8-1c1.2,0,2.3,0.2,3.2,0.7c0.9,0.5,1.6,1.1,2.2,1.9v-2.3
			h4.1v16.3h-4.1v-2.4c-0.5,0.8-1.3,1.4-2.2,1.9c-0.9,0.5-2,0.7-3.2,0.7c-1.4,0-2.6-0.4-3.7-1.1c-1.1-0.7-2-1.7-2.7-3
			c-0.7-1.3-1-2.8-1-4.4C47.8,30.8,48.2,29.3,48.8,28.1z M60.1,29.9c-0.4-0.7-0.9-1.3-1.6-1.6c-0.7-0.4-1.4-0.6-2.1-0.6
			c-0.8,0-1.5,0.2-2.1,0.6c-0.6,0.4-1.2,0.9-1.6,1.6c-0.4,0.7-0.6,1.6-0.6,2.5c0,1,0.2,1.8,0.6,2.6c0.4,0.7,0.9,1.3,1.6,1.7
			c0.7,0.4,1.4,0.6,2.1,0.6c0.8,0,1.5-0.2,2.1-0.6c0.7-0.4,1.2-0.9,1.6-1.6c0.4-0.7,0.6-1.6,0.6-2.6C60.6,31.5,60.4,30.6,60.1,29.9z
			"/>
		<path class="st2" d="M72.3,25.4c1.2-0.8,2.7-1.3,4.4-1.3c1.5,0,2.9,0.3,4.1,1c1.2,0.7,2.1,1.6,2.8,2.9c0.7,1.3,1,2.7,1,4.4
			c0,1.7-0.3,3.2-1,4.4c-0.7,1.3-1.6,2.2-2.8,2.9c-1.2,0.7-2.5,1-4.1,1c-1.7,0-3.1-0.4-4.4-1.3c-1.2-0.8-2.1-1.9-2.5-3.2v12.4h-1.3
			V24.4h1.3v4.3C70.3,27.3,71.1,26.3,72.3,25.4z M82.3,28.6c-0.6-1.1-1.3-1.9-2.3-2.5c-1-0.6-2.2-0.9-3.5-0.9
			c-1.3,0-2.4,0.3-3.4,0.9c-1,0.6-1.8,1.4-2.4,2.5c-0.6,1.1-0.9,2.3-0.9,3.8c0,1.4,0.3,2.7,0.9,3.8c0.6,1.1,1.4,1.9,2.4,2.5
			c1,0.6,2.2,0.9,3.4,0.9c1.3,0,2.5-0.3,3.5-0.9c1-0.6,1.8-1.4,2.3-2.5c0.6-1.1,0.8-2.4,0.8-3.8C83.2,31,82.9,29.7,82.3,28.6z"/>
		<path class="st2" d="M88,28.1c0.7-1.3,1.6-2.2,2.8-2.9c1.2-0.7,2.5-1,4.1-1c1.7,0,3.2,0.4,4.4,1.3s2,1.9,2.5,3.2v-4.3h1.3v16.3
			h-1.3v-4.3c-0.5,1.3-1.3,2.4-2.5,3.3c-1.2,0.8-2.7,1.3-4.4,1.3c-1.5,0-2.9-0.3-4.1-1c-1.2-0.7-2.1-1.7-2.8-2.9
			c-0.7-1.3-1-2.7-1-4.4C87,30.8,87.4,29.3,88,28.1z M100.9,28.7c-0.6-1.1-1.4-1.9-2.4-2.5c-1-0.6-2.2-0.9-3.4-0.9
			c-1.3,0-2.5,0.3-3.5,0.9c-1,0.6-1.8,1.4-2.3,2.5c-0.6,1.1-0.8,2.4-0.8,3.8c0,1.5,0.3,2.8,0.8,3.8c0.6,1.1,1.3,1.9,2.3,2.5
			c1,0.6,2.2,0.9,3.5,0.9c1.3,0,2.4-0.3,3.4-0.9c1-0.6,1.8-1.4,2.4-2.5c0.6-1.1,0.9-2.4,0.9-3.8C101.8,31.1,101.5,29.8,100.9,28.7z"
			/>
		<path class="st2" d="M120,24.4l-9.6,24.4h-1.4l3.2-8.1l-6.8-16.3h1.5l6.1,14.8l5.7-14.8H120z"/>
		<path class="st2" d="M146,25.8c1.2,1.2,1.8,3,1.8,5.3v9.5h-1.3v-9.4c0-1.9-0.5-3.4-1.4-4.5c-0.9-1-2.2-1.5-3.8-1.5
			c-1.7,0-3,0.6-4,1.7c-1,1.2-1.5,2.8-1.5,5v8.7h-1.3v-9.4c0-1.9-0.5-3.4-1.4-4.5c-0.9-1-2.2-1.5-3.8-1.5c-1.7,0-3,0.6-4,1.7
			c-1,1.2-1.5,2.8-1.5,5v8.7h-1.3V24.4h1.3v3.5c0.5-1.3,1.2-2.2,2.2-2.9c1-0.6,2.2-1,3.5-1c1.5,0,2.7,0.4,3.8,1.2
			c1.1,0.8,1.8,1.9,2.2,3.4c0.4-1.5,1.1-2.6,2.2-3.4c1.1-0.8,2.4-1.2,3.9-1.2C143.3,24,144.8,24.6,146,25.8z"/>
		<path class="st2" d="M166.4,33h-14c0,1.5,0.4,2.7,1,3.7c0.6,1,1.4,1.7,2.4,2.2c1,0.5,2,0.7,3.2,0.7c1.6,0,2.9-0.4,4-1.2
			c1.1-0.8,1.8-1.9,2-3.2h1.4c-0.3,1.7-1.1,3-2.5,4c-1.3,1-3,1.5-5,1.5c-1.5,0-2.9-0.3-4.1-1c-1.2-0.7-2.1-1.7-2.8-2.9
			c-0.7-1.3-1-2.8-1-4.5c0-1.7,0.3-3.2,1-4.4c0.7-1.3,1.6-2.2,2.8-2.9c1.2-0.7,2.6-1,4.1-1c1.6,0,2.9,0.3,4.1,1
			c1.1,0.7,2,1.6,2.6,2.7c0.6,1.1,0.9,2.3,0.9,3.6C166.4,32.1,166.4,32.7,166.4,33z M164.3,28.3c-0.6-1-1.3-1.7-2.3-2.2
			c-1-0.5-2-0.7-3.2-0.7s-2.2,0.2-3.2,0.7c-1,0.5-1.8,1.2-2.4,2.2c-0.6,1-0.9,2.2-1,3.7h12.8C165.1,30.5,164.9,29.3,164.3,28.3z"/>
		<path class="st2" d="M181.8,25.8c1.2,1.2,1.8,3,1.8,5.3v9.5h-1.3v-9.4c0-1.9-0.5-3.4-1.5-4.5c-1-1-2.3-1.5-4-1.5
			c-1.8,0-3.2,0.6-4.2,1.7c-1,1.1-1.6,2.8-1.6,5v8.8h-1.3V24.4h1.3v3.4c0.5-1.2,1.2-2.2,2.3-2.8c1.1-0.6,2.3-1,3.7-1
			C179,24,180.6,24.6,181.8,25.8z"/>
		<path class="st2" d="M189.6,25.5v10.8c0,1.2,0.2,2,0.7,2.5c0.4,0.4,1.2,0.7,2.3,0.7h1.8v1.2h-2c-1.4,0-2.5-0.3-3.1-1
			c-0.7-0.7-1-1.8-1-3.3V25.5h-2.5v-1.2h2.5v-5.4h1.3v5.4h4.8v1.2H189.6z"/>
		<path class="st2" d="M198.2,39.7c-1.1-0.8-1.8-1.9-1.9-3.4h1.4c0.1,1.1,0.6,1.9,1.5,2.5c0.9,0.6,2.1,0.9,3.5,0.9
			c1.2,0,2.2-0.3,2.9-0.9c0.7-0.6,1.1-1.4,1.1-2.3c0-0.6-0.2-1.2-0.6-1.6c-0.4-0.4-0.9-0.7-1.5-0.9c-0.6-0.2-1.4-0.5-2.4-0.7
			c-1.2-0.3-2.2-0.6-2.9-0.9c-0.7-0.3-1.4-0.8-1.9-1.4c-0.5-0.6-0.8-1.4-0.8-2.5c0-0.8,0.2-1.5,0.7-2.1c0.5-0.6,1.1-1.2,1.9-1.5
			c0.8-0.4,1.7-0.6,2.8-0.6c1.7,0,3.1,0.4,4.1,1.3c1,0.8,1.6,2,1.7,3.5h-1.3c-0.1-1.1-0.5-2-1.3-2.6c-0.8-0.7-1.9-1-3.2-1
			c-1.2,0-2.1,0.3-2.9,0.9c-0.8,0.6-1.1,1.3-1.1,2.2c0,0.8,0.2,1.4,0.6,1.8c0.4,0.5,1,0.8,1.6,1.1c0.6,0.3,1.5,0.5,2.5,0.8
			c1.1,0.3,2.1,0.6,2.7,0.9c0.7,0.3,1.3,0.7,1.8,1.3c0.5,0.5,0.7,1.3,0.7,2.2c0,0.8-0.2,1.6-0.7,2.3c-0.5,0.7-1.1,1.2-1.9,1.6
			c-0.8,0.4-1.7,0.6-2.8,0.6C200.9,40.9,199.4,40.5,198.2,39.7z"/>
	</g>
</g>
</svg>
